<?xml version="1.0" encoding="UTF-8" standalone="no"?>
<!-- Created with Inkscape (http://www.inkscape.org/) -->
<svg
   xmlns:dc="http://purl.org/dc/elements/1.1/"
   xmlns:cc="http://web.resource.org/cc/"
   xmlns:rdf="http://www.w3.org/1999/02/22-rdf-syntax-ns#"
   xmlns:svg="http://www.w3.org/2000/svg"
   xmlns="http://www.w3.org/2000/svg"
   xmlns:sodipodi="http://inkscape.sourceforge.net/DTD/sodipodi-0.dtd"
   xmlns:inkscape="http://www.inkscape.org/namespaces/inkscape"
   id="svg1354"
   sodipodi:version="0.32"
   inkscape:version="0.42.2"
   width="210mm"
   height="297mm"
   sodipodi:docbase="C:\Documents and Settings\imseg\Desktop"
   sodipodi:docname="barsoi.svg">
  <metadata
     id="metadata1359">
    <rdf:RDF>
      <cc:Work
         rdf:about="">
        <dc:format>image/svg+xml</dc:format>
        <dc:type
           rdf:resource="http://purl.org/dc/dcmitype/StillImage" />
      </cc:Work>
    </rdf:RDF>
  </metadata>
  <defs
     id="defs1357">
    <linearGradient
       id="linearGradient1413">
      <stop
         style="stop-color:#1be747;stop-opacity:1.0000000;"
         offset="0.00000000"
         id="stop1415" />
      <stop
         id="stop1423"
         offset="1.0000000"
         style="stop-color:#fa730b;stop-opacity:0.49803922;" />
      <stop
         style="stop-color:#000000;stop-opacity:0;"
         offset="1"
         id="stop1417" />
    </linearGradient>
  </defs>
  <sodipodi:namedview
     inkscape:window-height="1005"
     inkscape:window-width="1280"
     inkscape:pageshadow="2"
     inkscape:pageopacity="0.0"
     borderopacity="1.0"
     bordercolor="#666666"
     pagecolor="#ffffff"
     id="base"
     inkscape:zoom="1.0000000"
     inkscape:cx="372.04724"
     inkscape:cy="506.36012"
     inkscape:window-x="-4"
     inkscape:window-y="-4"
     inkscape:current-layer="layer2" />
  <g
     inkscape:groupmode="layer"
     id="layer2"
     inkscape:label="Logo">
    <rect
       style="fill:#f93330;fill-opacity:1.0000000;fill-rule:evenodd;stroke:#f5e61b;stroke-width:1.8990166;stroke-linecap:round;stroke-linejoin:round;stroke-miterlimit:4.0000000;stroke-dasharray:none;stroke-opacity:0.00000000"
       id="rect8761"
       width="401.19687"
       height="278.00000"
       x="170.90157"
       y="319.36218" />
    <path
       style="fill:#f2e318;fill-opacity:1.0000000;fill-rule:evenodd;stroke:#f5e61b;stroke-width:2.0000000;stroke-linecap:butt;stroke-linejoin:miter;stroke-opacity:0.00000000;stroke-miterlimit:4.0000000;stroke-dasharray:none"
       d="M 559.00000,426.36218 L 566.00000,421.36218 L 556.00000,411.36218 L 546.00000,405.36218 L 540.00000,397.36218 L 536.00000,391.36218 L 526.00000,385.36218 L 531.00000,380.36218 L 535.00000,378.36218 L 526.00000,373.36218 L 515.00000,370.36218 L 504.00000,375.36218 L 498.00000,379.36218 L 496.00000,384.36218 L 483.00000,390.36218 L 461.00000,398.36218 L 450.00000,404.36218 L 438.00000,406.36218 L 423.00000,400.36218 L 412.00000,393.36218 L 394.00000,386.36218 L 375.00000,381.36218 L 354.00000,378.36218 L 331.00000,379.36218 L 307.00000,380.36218 L 281.00000,396.36218 L 271.00000,410.36218 L 252.00000,402.36218 L 243.00000,401.36218 L 220.00000,420.36218 L 184.00000,420.36218 L 171.00000,430.36218 L 169.00000,477.36218 L 170.00000,511.36218 L 192.00000,493.36218 L 215.00000,466.36218 L 230.00000,453.36218 L 242.00000,453.36218 L 254.00000,447.36218 L 273.00000,466.36218 L 289.00000,475.36218 L 308.00000,483.36218 L 314.00000,487.36218 L 311.00000,508.36218 L 298.00000,507.36218 L 286.00000,511.36218 L 297.00000,522.36218 L 314.00000,530.36218 L 321.00000,536.36218 L 317.00000,560.36218 L 321.00000,569.36218 L 331.00000,574.36218 L 337.00000,573.36218 L 337.00000,564.36218 L 332.00000,560.36218 L 331.00000,545.36218 L 331.00000,539.36218 L 345.00000,527.36218 L 362.00000,533.36218 L 374.00000,537.36218 L 382.00000,535.36218 L 384.00000,531.36218 L 398.00000,534.36218 L 406.00000,529.36218 L 405.00000,525.36218 L 394.00000,522.36218 L 386.00000,523.36218 L 372.00000,518.36218 L 364.00000,513.36218 L 378.00000,502.36218 L 392.00000,502.36218 L 419.00000,493.36218 L 438.00000,482.36218 L 450.00000,475.36218 L 471.00000,470.36218 L 483.00000,458.36218 C 483.00000,458.36218 487.00000,448.36218 492.00000,448.36218 C 497.00000,448.36218 510.00000,447.36218 510.00000,447.36218 L 518.00000,426.36218 L 533.00000,432.36218 L 545.00000,435.36218 L 549.00000,433.36218 L 534.00000,418.36218 L 559.00000,426.36218 z "
       id="path1385" />
    <path
       style="fill-opacity:1.0;fill-rule:evenodd;stroke:#f5e61b;stroke-width:2.0000000;stroke-linecap:round;stroke-linejoin:round;stroke-opacity:0.00000000;stroke-miterlimit:4.0000000;stroke-dasharray:none;fill:none"
       d="M 384.00000,531.36218 C 381.55769,529.05516 379.30620,526.40051 376.74723,524.30601 C 372.06147,523.26697 367.31800,522.42373 362.90084,520.47360 C 355.46287,517.65805 347.92827,515.04941 340.55036,512.10525 C 338.36691,510.85756 336.18345,509.60987 334.00000,508.36218 C 334.40559,503.62754 334.54754,498.82065 335.11580,494.13058 C 337.74387,488.87445 340.37193,483.61832 343.00000,478.36218 C 345.76059,476.81464 349.00932,475.94436 351.01405,473.34813 C 353.64771,470.57730 356.63806,467.99735 359.05078,465.10827 C 360.33205,458.43920 361.82149,451.77976 362.97289,445.10467 C 362.31526,438.85717 361.65763,432.60968 361.00000,426.36218 C 355.33333,422.36218 349.66667,418.36218 344.00000,414.36218 C 341.00000,414.02885 338.00000,413.69552 335.00000,413.36218"
       id="path1389" />
    <path
       style="fill:none;fill-opacity:0.75000000;fill-rule:evenodd;stroke:#000000;stroke-width:1.0000000px;stroke-linecap:butt;stroke-linejoin:miter;stroke-opacity:1.0000000"
       d="M 337.00000,526.36218 L 337.00000,526.36218 z "
       id="path1393" />
    <path
       style="fill:none;fill-opacity:0.75000000;fill-rule:evenodd;stroke:#f5e61b;stroke-width:2.0000000;stroke-linecap:butt;stroke-linejoin:miter;stroke-opacity:0.00000000;stroke-miterlimit:4.0000000;stroke-dasharray:none"
       d="M 321.00000,536.36218 L 330.00000,539.36218"
       id="path1397" />
    <text
       xml:space="preserve"
       style="font-size:12.000000px;font-style:normal;font-weight:normal;line-height:125.00000%;fill:#000000;fill-opacity:1.0000000;stroke:none;stroke-width:1.0000000px;stroke-linecap:butt;stroke-linejoin:miter;stroke-opacity:1.0000000;font-family:Bitstream Vera Sans"
       x="341"
       y="576.36218"
       id="text1425"
       sodipodi:linespacing="125.00000%"><tspan
         sodipodi:role="line"
         id="tspan1427"
         x="341.00000"
         y="576.36218"
         style="font-size:48.000000px;font-style:italic;font-variant:normal;font-weight:bold;font-stretch:normal;text-align:start;line-height:125.00000%;writing-mode:lr-tb;text-anchor:start;font-family:Arial;fill:#f5e61b;fill-opacity:1.0000000">БАРСОИ</tspan></text>
    <path
       style="fill:none;fill-opacity:0.75000000;fill-rule:evenodd;stroke:#f5e61b;stroke-width:2.0000000;stroke-linecap:butt;stroke-linejoin:miter;stroke-opacity:0.00000000;stroke-miterlimit:4.0000000;stroke-dasharray:none"
       d="M 311.00000,507.36218 L 346.00000,526.36218"
       id="path2906" />
    <path
       style="fill:none;fill-opacity:0.75000000;fill-rule:evenodd;stroke:#f5e61b;stroke-width:2.0000000;stroke-linecap:butt;stroke-linejoin:miter;stroke-opacity:0.00000000;stroke-miterlimit:4.0000000;stroke-dasharray:none"
       d="M 342.00000,511.36218 L 368.00000,492.36218"
       id="path4379" />
  </g>
</svg>
